name D:\PhD\Datasets\SharingData_IBEC_VALDUCE\MO1_Healthy_0001.mot
datacolumns 46
datarows 12
range 7.51000000 7.62000000
endheader
                time	         pelvis_tilt	     pelvis_rotation	           pelvis_tx	           pelvis_ty	           pelvis_tz	       hip_flexion_r	     hip_adduction_r	      hip_rotation_r	        knee_angle_r	       ankle_angle_r	    subtalar_angle_r	         mtp_angle_r	       hip_flexion_l	     hip_adduction_l	      hip_rotation_l	        knee_angle_l	       ankle_angle_l	    subtalar_angle_l	         mtp_angle_l	    lumbar_extension	      lumbar_bending	     lumbar_rotation	          arm_flex_r	           arm_add_r	           arm_rot_r	        elbow_flex_r	           pro_sup_r	        wrist_flex_r	         wrist_dev_r	          arm_flex_l	           arm_add_l	           arm_rot_l	        elbow_flex_l	           pro_sup_l	        wrist_flex_l	         wrist_dev_l	          end_eff_tx	          end_eff_ty	          end_eff_tz	             goal_tx	             goal_ty	             goal_tz	            elbow_tx	            elbow_ty	            elbow_tz	
          7.51000000	          0.00000000	          0.00000000	        314.04387182	        506.59453679	        430.80518477	          0.00000000	          0.00000000	          0.00000000	          0.00000000	          0.00000000	          0.00000000	          0.00000000	          0.00000000	          0.00000000	          0.00000000	          0.00000000	          0.00000000	          0.00000000	          0.00000000	         -2.30536461	          7.53979731	        -13.88912010	         68.33338165	        -60.45332718	         24.32817841	         71.08892059	         89.72020721	          0.00000000	          0.00000000	          0.00000000	          0.00000000	          0.00000000	          0.00000000	          0.00000000	          0.00000000	          0.00000000	        594.19801048	        734.95995010	        865.34196834	        601.09722353	        753.04199589	       1096.39794393	        244.16828231	        507.41729870	        874.79005006	
          7.52000000	          0.00000000	          0.00000000	        313.56978453	        506.88358590	        429.91223215	          0.00000000	          0.00000000	          0.00000000	          0.00000000	          0.00000000	          0.00000000	          0.00000000	          0.00000000	          0.00000000	          0.00000000	          0.00000000	          0.00000000	          0.00000000	          0.00000000	         -2.35934210	          7.20862198	        -13.90025330	         67.32705688	        -59.79586029	         23.78419685	         71.42912292	         89.93675232	          0.00000000	          0.00000000	          0.00000000	          0.00000000	          0.00000000	          0.00000000	          0.00000000	          0.00000000	          0.00000000	        596.27992510	        731.16996044	        859.35855279	        601.10903277	        753.03623728	       1096.42516259	        244.93177203	        505.77872643	        873.06881823	
          7.53000000	          0.00000000	          0.00000000	        313.17009023	        506.96852008	        429.07606766	          0.00000000	          0.00000000	          0.00000000	          0.00000000	          0.00000000	          0.00000000	          0.00000000	          0.00000000	          0.00000000	          0.00000000	          0.00000000	          0.00000000	          0.00000000	          0.00000000	         -2.41964817	          7.21984911	        -13.82954597	         67.00183105	        -59.38696671	         24.02795029	         71.75248718	         89.91073608	          0.00000000	          0.00000000	          0.00000000	          0.00000000	          0.00000000	          0.00000000	          0.00000000	          0.00000000	          0.00000000	        598.41320546	        726.95261629	        853.16374942	        601.09719014	        753.04034913	       1096.41285745	        245.78381613	        504.01437850	        871.29752972	
          7.54000000	          0.00000000	          0.00000000	        312.87106210	        507.09390705	        428.28486965	          0.00000000	          0.00000000	          0.00000000	          0.00000000	          0.00000000	          0.00000000	          0.00000000	          0.00000000	          0.00000000	          0.00000000	          0.00000000	          0.00000000	          0.00000000	          0.00000000	         -2.45860839	          7.20851517	        -13.80742264	         66.59360504	        -58.93529129	         24.08797455	         72.00746918	         89.99641418	          0.00000000	          0.00000000	          0.00000000	          0.00000000	          0.00000000	          0.00000000	          0.00000000	          0.00000000	          0.00000000	        600.46918481	        722.92976847	        847.18526850	        601.08985482	        753.16781126	       1096.35931720	        246.63375728	        502.13812010	        869.43573176	
          7.55000000	          0.00000000	          0.00000000	        312.51135061	        507.09982888	        427.43605088	          0.00000000	          0.00000000	          0.00000000	          0.00000000	          0.00000000	          0.00000000	          0.00000000	          0.00000000	          0.00000000	          0.00000000	          0.00000000	          0.00000000	          0.00000000	          0.00000000	         -2.32728171	          7.13654327	        -13.76697636	         66.11629486	        -58.59840775	         24.20048904	         72.30242920	         89.83503723	          0.00000000	          0.00000000	          0.00000000	          0.00000000	          0.00000000	          0.00000000	          0.00000000	          0.00000000	          0.00000000	        602.56008926	        718.56956156	        841.13730718	        601.12259268	        753.19320958	       1096.34421150	        247.33627771	        500.31935370	        867.64493163	
          7.56000000	          0.00000000	          0.00000000	        312.09898088	        506.99876092	        426.52495551	          0.00000000	          0.00000000	          0.00000000	          0.00000000	          0.00000000	          0.00000000	          0.00000000	          0.00000000	          0.00000000	          0.00000000	          0.00000000	          0.00000000	          0.00000000	          0.00000000	         -2.26928115	          7.04760885	        -13.67794704	         65.27185822	        -58.11257553	         23.96591949	         72.53239441	         89.68246460	          0.00000000	          0.00000000	          0.00000000	          0.00000000	          0.00000000	          0.00000000	          0.00000000	          0.00000000	          0.00000000	        604.72441740	        713.73513477	        834.88167095	        600.98938866	        753.34684597	       1096.33779633	        247.96224177	        498.46579307	        865.83557521	
          7.57000000	          0.00000000	          0.00000000	        311.75678923	        506.95026666	        425.65927388	          0.00000000	          0.00000000	          0.00000000	          0.00000000	          0.00000000	          0.00000000	          0.00000000	          0.00000000	          0.00000000	          0.00000000	          0.00000000	          0.00000000	          0.00000000	          0.00000000	         -2.36801577	          7.07409334	        -13.57431221	         65.02957153	        -57.88066864	         24.13320541	         72.83316803	         89.56477356	          0.00000000	          0.00000000	          0.00000000	          0.00000000	          0.00000000	          0.00000000	          0.00000000	          0.00000000	          0.00000000	        606.65074763	        708.99191211	        828.64286258	        601.01501160	        753.32089143	       1096.34509199	        248.72357636	        496.37944519	        863.81757486	
          7.58000000	          0.00000000	          0.00000000	        311.47300139	        506.97893949	        424.84226128	          0.00000000	          0.00000000	          0.00000000	          0.00000000	          0.00000000	          0.00000000	          0.00000000	          0.00000000	          0.00000000	          0.00000000	          0.00000000	          0.00000000	          0.00000000	          0.00000000	         -2.41033840	          7.07528400	        -13.52144909	         64.57296753	        -57.53456879	         24.44755554	         73.15615082	         89.40702820	          0.00000000	          0.00000000	          0.00000000	          0.00000000	          0.00000000	          0.00000000	          0.00000000	          0.00000000	          0.00000000	        608.67404991	        703.83243961	        822.53320008	        601.00865389	        753.35683237	       1096.34481313	        249.42726556	        494.23947218	        861.76497870	
          7.59000000	          0.00000000	          0.00000000	        311.12889202	        506.96527220	        423.90285885	          0.00000000	          0.00000000	          0.00000000	          0.00000000	          0.00000000	          0.00000000	          0.00000000	          0.00000000	          0.00000000	          0.00000000	          0.00000000	          0.00000000	          0.00000000	          0.00000000	         -2.31686068	          6.97606707	        -13.39430141	         63.49792480	        -56.98534393	         24.54590988	         73.55361176	         89.12796021	          0.00000000	          0.00000000	          0.00000000	          0.00000000	          0.00000000	          0.00000000	          0.00000000	          0.00000000	          0.00000000	        610.52841079	        698.52447893	        816.08975483	        601.00604877	        753.37415375	       1096.34681282	        250.21635004	        491.83973313	        859.70320612	
          7.60000000	          0.00000000	          0.00000000	        310.80627429	        506.96085501	        422.95452411	          0.00000000	          0.00000000	          0.00000000	          0.00000000	          0.00000000	          0.00000000	          0.00000000	          0.00000000	          0.00000000	          0.00000000	          0.00000000	          0.00000000	          0.00000000	          0.00000000	         -2.44697475	          7.00460720	        -13.25978565	         62.92838287	        -56.51494217	         24.66294289	         73.80005646	         89.42185974	          0.00000000	          0.00000000	          0.00000000	          0.00000000	          0.00000000	          0.00000000	          0.00000000	          0.00000000	          0.00000000	        612.62838422	        692.62410322	        809.73068703	        601.00741248	        753.38082227	       1096.35058131	        250.97380780	        489.39437477	        857.47244715	
          7.61000000	          0.00000000	          0.00000000	        310.54714436	        507.09429914	        422.17783958	          0.00000000	          0.00000000	          0.00000000	          0.00000000	          0.00000000	          0.00000000	          0.00000000	          0.00000000	          0.00000000	          0.00000000	          0.00000000	          0.00000000	          0.00000000	          0.00000000	         -2.41272497	          6.94249296	        -13.17396545	         62.38003540	        -56.10072708	         24.80477524	         74.01757050	         89.51129150	          0.00000000	          0.00000000	          0.00000000	          0.00000000	          0.00000000	          0.00000000	          0.00000000	          0.00000000	          0.00000000	        614.62572271	        686.96073638	        803.61634737	        601.10961625	        753.05650699	       1096.41411560	        251.72516953	        486.67165321	        855.15908322	
          7.62000000	          0.00000000	          0.00000000	        310.24844760	        507.08527497	        421.30712162	          0.00000000	          0.00000000	          0.00000000	          0.00000000	          0.00000000	          0.00000000	          0.00000000	          0.00000000	          0.00000000	          0.00000000	          0.00000000	          0.00000000	          0.00000000	          0.00000000	         -2.42090988	          7.04365444	        -13.10337448	         61.94576645	        -55.72269821	         24.99177933	         74.16342163	         89.37634277	          0.00000000	          0.00000000	          0.00000000	          0.00000000	          0.00000000	          0.00000000	          0.00000000	          0.00000000	          0.00000000	        616.60499951	        681.34950721	        797.45967972	        601.06636498	        752.98835681	       1096.41941143	        252.48940289	        484.10023568	        852.75754187	
